HIERARCHY
ROOT Hips
{
	OFFSET 0.000000 0.000000 0.000000
	CHANNELS 6 Xposition Yposition Zposition Zrotation Yrotation Xrotation 
	JOINT LeftUpLeg_virtual
	{
		OFFSET 0.000000 0.000000 0.000000
		CHANNELS 3 Zrotation Yrotation Xrotation
		JOINT LeftUpLeg
		{
			OFFSET 10.205400 -3.823500 0.155100
			CHANNELS 3 Zrotation Yrotation Xrotation
			JOINT LeftLeg
			{
				OFFSET 0.708757 -12.982077 0.567790
				CHANNELS 3 Zrotation Yrotation Xrotation
				JOINT LeftFoot
				{
					OFFSET -0.708756 -10.717838 -2.184338
					CHANNELS 3 Zrotation Yrotation Xrotation
					JOINT LeftToeBase
					{
						OFFSET 0.108149 -7.191104 7.560241
						CHANNELS 3 Zrotation Yrotation Xrotation
						End Site
						{
							OFFSET 0.000000 0.000000 0.000000
						}
					}
				}
			}
		}
	}
	JOINT RightUpLeg_virtual
	{
		OFFSET 0.000000 0.000000 0.000000
		CHANNELS 3 Zrotation Yrotation Xrotation
		JOINT RightUpLeg
		{
			OFFSET -10.205400 -3.823500 0.005500
			CHANNELS 3 Zrotation Yrotation Xrotation
			JOINT RightLeg
			{
				OFFSET -0.708756 -12.982134 0.610632
				CHANNELS 3 Zrotation Yrotation Xrotation
				JOINT RightFoot
				{
					OFFSET 0.708754 -10.717769 -1.945823
					CHANNELS 3 Zrotation Yrotation Xrotation
					JOINT RightToeBase
					{
						OFFSET -0.108140 -7.191069 7.372968
						CHANNELS 3 Zrotation Yrotation Xrotation
						End Site
						{
							OFFSET 0.000000 0.000000 0.000000
						}
					}
				}
			}
		}
	}
	JOINT Spine_virtual
	{
		OFFSET 0.000000 0.000000 0.000000
		CHANNELS 3 Zrotation Yrotation Xrotation
		JOINT Spine
		{
			OFFSET 0.000000 6.876099 0.125700
			CHANNELS 3 Zrotation Yrotation Xrotation
			JOINT Spine1
			{
				OFFSET 0.000000 8.022060 0.146608
				CHANNELS 3 Zrotation Yrotation Xrotation
				JOINT Spine2
				{
					OFFSET 0.000000 9.168068 0.167552
					CHANNELS 3 Zrotation Yrotation Xrotation
					JOINT Neck_virtual
					{
						OFFSET 0.000000 0.000000 0.000000
						CHANNELS 3 Zrotation Yrotation Xrotation
						JOINT Neck
						{
							OFFSET 0.000000 10.314075 0.188496
							CHANNELS 3 Zrotation Yrotation Xrotation
							JOINT Head
							{
								OFFSET 0.000000 7.643700 -2.377400
								CHANNELS 3 Zrotation Yrotation Xrotation
								End Site
								{
									OFFSET 0.000000 0.000000 0.000000
								}
							}
						}
					}
					JOINT LeftShoulder_virtual
					{
						OFFSET 0.000000 0.000000 0.000000
						CHANNELS 3 Zrotation Yrotation Xrotation
						JOINT LeftShoulder
						{
							OFFSET 4.392200 8.824978 0.174984
							CHANNELS 3 Zrotation Yrotation Xrotation
							JOINT LeftArm
							{
								OFFSET 8.771219 -2.981674 -0.026999
								CHANNELS 3 Zrotation Yrotation Xrotation
								JOINT LeftForeArm
								{
									OFFSET 8.512804 0.000000 -0.000000
									CHANNELS 3 Zrotation Yrotation Xrotation
									JOINT LeftHand
									{
										OFFSET 18.484802 0.000000 -0.000000
										CHANNELS 3 Zrotation Yrotation Xrotation
										End Site
										{
											OFFSET 0.000000 0.000000 0.000000
										}
									}
								}
							}
						}
					}
					JOINT RightShoulder_virtual
					{
						OFFSET 0.000000 0.000000 0.000000
						CHANNELS 3 Zrotation Yrotation Xrotation
						JOINT RightShoulder
						{
							OFFSET -4.392200 8.824993 0.141379
							CHANNELS 3 Zrotation Yrotation Xrotation
							JOINT RightArm
							{
								OFFSET -8.771282 -2.981682 -0.094208
								CHANNELS 3 Zrotation Yrotation Xrotation
								JOINT RightForeArm
								{
									OFFSET -8.494598 0.000000 0.000000
									CHANNELS 3 Zrotation Yrotation Xrotation
									JOINT RightHand
									{
										OFFSET -18.483803 0.000000 0.000001
										CHANNELS 3 Zrotation Yrotation Xrotation
										End Site
										{
											OFFSET 0.000000 0.000000 0.000000
										}
									}
								}
							}
						}
					}
				}
			}
		}
	}
}
MOTION
Frames: 13
Frame Time: 0.033333
1.013357 36.249828 12.121987 179.836162 1.940446 -179.578473 -0.909050 -5.372469 12.812304 -6.519875 -3.706558 -15.228025 12.960520 1.928226 17.869855 -2.827538 -0.560034 3.588271 0.000000 0.000000 0.000000 4.268495 -3.724598 11.824348 -3.654872 6.181532 -15.963643 -5.223461 1.250834 20.853006 10.206690 1.746075 4.538974 0.000000 0.000000 0.000000 2.002968 -1.252963 -1.226054 -1.975645 1.659786 -8.473499 0.700381 -2.536236 8.255848 0.046208 0.024223 0.078815 0.370311 -0.555626 10.103124 0.660844 2.293377 15.877815 0.000000 0.000000 0.000000 1.599685 0.100000 7.316524 -18.899144 -13.800357 3.767037 -41.001619 -4.271491 5.652712 -2.844471 -47.790714 0.854043 0.000000 0.000000 0.000000 -1.560212 1.111895 6.854742 27.855137 5.456011 4.199062 38.165758 -1.848777 14.826669 -2.206931 38.450154 -2.669891 0.000000 0.000000 0.000000 
1.005111 36.270096 12.129384 179.665094 2.231683 -179.376627 -0.784672 -5.464125 12.771833 -6.496514 -3.835225 -14.958751 12.977061 1.278491 17.856848 -2.898353 -0.591100 3.582093 0.000000 0.000000 0.000000 4.274042 -4.133261 11.947013 -3.572613 5.742370 -15.479645 -5.233844 0.764477 21.186253 10.135272 1.733560 4.882631 0.000000 0.000000 0.000000 1.962450 -1.360508 -1.397480 -2.071439 1.837023 -8.512241 0.707143 -2.381910 8.213515 0.071045 0.009541 0.137577 0.362767 -0.548163 10.059789 0.604207 2.222862 15.753406 0.000000 0.000000 0.000000 1.582198 0.115611 7.270191 -18.844989 -13.885037 3.687113 -40.915702 -5.069370 5.241431 -2.762974 -48.677577 0.772479 0.000000 0.000000 0.000000 -1.543010 1.076368 6.832072 27.815635 5.546686 4.187232 38.105390 -1.365384 14.955203 -2.268126 38.588404 -2.727235 0.000000 0.000000 0.000000 
1.006595 36.288891 12.132290 179.669164 2.295084 -179.406858 -0.795641 -5.528166 12.661495 -6.491274 -3.755295 -14.790278 12.992173 1.322003 17.724582 -2.897233 -0.547347 3.828418 0.000000 0.000000 0.000000 4.297602 -4.204964 11.762195 -3.625985 5.578933 -15.326238 -5.231962 0.743165 21.153738 10.278885 1.849670 4.909909 0.000000 0.000000 0.000000 2.018613 -1.534414 -1.394924 -2.130657 1.825310 -8.433059 0.682493 -2.422483 8.225127 0.073121 0.100481 0.103000 0.361708 -0.545938 10.099160 0.740094 2.123963 15.723374 0.000000 0.000000 0.000000 1.589431 0.132781 7.245135 -18.765827 -13.889699 3.623598 -40.845006 -5.952170 4.577900 -2.950640 -50.020146 1.018433 0.000000 0.000000 0.000000 -1.544707 1.194746 6.859676 27.741612 5.887859 4.251649 38.077755 -1.158710 15.157003 -2.282304 38.689716 -2.752922 0.000000 0.000000 0.000000 
1.025664 36.310165 12.130549 179.652881 2.371823 -179.431132 -0.827637 -5.549693 12.645033 -6.446585 -3.717055 -14.677108 12.997380 1.311109 17.523870 -2.887641 -0.524532 4.067725 0.000000 0.000000 0.000000 4.322031 -4.241608 11.677549 -3.644051 5.523901 -15.249053 -5.231920 0.713734 21.116795 10.314725 1.906510 5.007629 0.000000 0.000000 0.000000 2.047574 -1.391087 -1.327864 -2.199171 1.846600 -8.370988 0.668729 -2.475613 8.261135 0.046792 0.080144 0.095623 0.418070 -0.616313 10.177942 0.980366 1.907219 15.703771 0.000000 0.000000 0.000000 1.626551 0.072697 7.205965 -18.771178 -13.898866 3.657165 -40.931999 -6.402331 4.130109 -3.105704 -51.608465 1.277957 0.000000 0.000000 0.000000 -1.540820 1.058207 6.896206 27.677822 6.221618 4.268809 38.073281 -1.017392 15.674336 -2.323324 38.639446 -2.768678 0.000000 0.000000 0.000000 
1.051044 36.326614 12.130194 179.661760 2.436763 -179.410792 -0.838775 -5.552647 12.724088 -6.406014 -3.713534 -14.694068 13.040692 1.252686 17.315836 -2.844092 -0.533922 4.241916 0.000000 0.000000 0.000000 4.359726 -4.250075 11.679558 -3.627621 5.535408 -15.342598 -5.244293 0.700335 21.114172 10.253894 1.934091 5.125388 0.000000 0.000000 0.000000 2.080415 -1.433955 -1.264110 -2.263924 1.894191 -8.356784 0.653365 -2.522477 8.376723 0.020033 0.042573 0.119227 0.408511 -0.659377 10.144252 1.364251 1.601831 15.513858 0.000000 0.000000 0.000000 1.653107 0.096928 7.135436 -18.796781 -13.670541 3.663698 -41.091948 -6.263801 4.089282 -3.309103 -53.030101 1.652054 0.000000 0.000000 0.000000 -1.507460 1.146100 6.885503 27.497179 6.547892 4.392291 38.236775 -1.194738 15.933969 -2.245388 38.405184 -2.707299 0.000000 0.000000 0.000000 
1.083604 36.337563 12.130663 179.623675 2.491611 -179.395793 -0.909561 -5.577251 12.889325 -6.332516 -3.695288 -14.804104 13.054365 1.086500 17.205713 -2.709700 -0.575600 4.265159 0.000000 0.000000 0.000000 4.377701 -4.292348 11.750811 -3.603058 5.623392 -15.549308 -5.249251 0.715429 21.219093 10.127434 1.942639 5.193356 0.000000 0.000000 0.000000 2.072323 -1.446182 -1.261993 -2.311326 1.960580 -8.324148 0.650277 -2.589010 8.717166 0.028655 0.045731 0.035146 0.419669 -0.726306 10.203467 1.893419 1.214179 15.448706 0.000000 0.000000 0.000000 1.590876 0.108611 7.131296 -18.830931 -13.496554 3.732049 -41.230669 -5.590498 4.360854 -3.399607 -53.456141 1.952172 0.000000 0.000000 0.000000 -1.571503 1.109160 6.876140 27.373404 6.851595 4.512262 38.509191 -1.623778 16.298197 -2.199427 37.883132 -2.633331 0.000000 0.000000 0.000000 
1.097253 36.340954 12.129061 179.672170 2.607612 -179.424657 -0.893061 -5.597075 13.101513 -6.339884 -3.664723 -14.983787 13.123081 1.003348 17.273103 -2.543266 -0.693019 4.211175 0.000000 0.000000 0.000000 4.439252 -4.352028 11.853474 -3.579314 5.746225 -15.825763 -5.275594 0.790234 21.463552 9.943895 1.947430 5.198247 0.000000 0.000000 0.000000 2.174654 -1.498440 -1.086690 -2.299831 2.106795 -8.190975 0.600359 -2.580950 8.603173 0.013728 0.053746 0.104700 0.395296 -0.750113 10.490283 2.557505 0.734670 15.275392 0.000000 0.000000 0.000000 1.614875 0.056807 7.351839 -18.854196 -13.318835 3.715663 -41.454447 -4.464252 5.181349 -3.471260 -52.997439 2.269902 0.000000 0.000000 0.000000 -1.615292 1.064976 7.119687 27.255047 6.989704 4.572407 38.869056 -2.249073 16.554813 -2.260961 37.165873 -2.656145 0.000000 0.000000 0.000000 
1.094283 36.338665 12.118825 179.673959 2.826909 -179.412458 -0.894082 -5.593069 13.284994 -6.385315 -3.614774 -15.241379 13.192443 1.098993 17.490719 -2.393988 -0.930588 4.174809 0.000000 0.000000 0.000000 4.471563 -4.347782 11.922502 -3.601297 5.963427 -16.152950 -5.310425 0.883161 21.795299 9.756460 1.968049 5.109124 0.000000 0.000000 0.000000 2.236189 -1.620888 -1.103811 -2.212411 2.315016 -7.994661 0.609724 -2.493321 8.900717 0.057230 -0.009787 0.151309 0.361417 -0.718182 10.525643 3.307166 0.188027 14.965592 0.000000 0.000000 0.000000 1.529535 0.015794 7.461932 -18.800446 -13.268438 3.742128 -41.575590 -3.244865 6.201598 -3.461911 -50.841029 2.541522 0.000000 0.000000 0.000000 -1.732079 0.993267 7.125892 27.060226 7.004658 4.373948 39.392559 -3.105654 16.658589 -2.159169 36.097369 -2.528934 0.000000 0.000000 0.000000 
1.077183 36.334904 12.117777 179.689928 3.264401 -179.421133 -0.863840 -5.501805 13.430134 -6.564272 -3.507208 -15.489344 13.312143 1.308924 17.777253 -2.249381 -1.230823 4.256614 0.000000 0.000000 0.000000 4.498979 -4.234152 11.932443 -3.666510 6.239702 -16.449916 -5.358346 1.011088 22.141561 9.575307 1.988473 4.949103 0.000000 0.000000 0.000000 2.324311 -1.483538 -1.011803 -2.020959 2.317041 -7.632741 0.570205 -2.627418 8.997142 0.045348 0.047296 0.135323 0.314343 -0.773933 10.755274 4.053567 -0.482817 14.593983 0.000000 0.000000 0.000000 1.459772 -0.053878 7.702307 -18.813917 -13.167735 3.906442 -41.733853 -1.848051 7.486419 -3.302622 -47.733119 2.617424 0.000000 0.000000 0.000000 -1.825652 0.886958 7.440080 26.849532 7.102358 4.348740 39.883886 -3.854750 16.642379 -2.303368 34.881909 -2.644216 0.000000 0.000000 0.000000 
1.039708 36.337101 12.144394 179.719312 3.981810 -179.434984 -0.818886 -5.319016 13.520797 -6.849275 -3.289042 -15.686026 13.451459 1.701923 18.052154 -2.139056 -1.576723 4.470555 0.000000 0.000000 0.000000 4.541710 -3.994222 11.850814 -3.800119 6.634932 -16.682920 -5.415169 1.189677 22.391015 9.429833 1.997162 4.794255 0.000000 0.000000 0.000000 2.438692 -1.380926 -0.869497 -1.693719 2.392630 -7.186310 0.581076 -2.662287 9.187934 0.063740 0.033525 0.115296 0.328887 -0.814831 11.047426 4.827057 -1.162391 14.176127 0.000000 0.000000 0.000000 1.411468 -0.048284 7.985184 -18.795822 -13.168187 3.943046 -42.053922 -0.465207 8.841675 -3.267104 -43.954354 2.909914 0.000000 0.000000 0.000000 -1.919115 0.853075 7.688120 26.577666 6.991879 4.203820 40.357525 -4.585290 16.234649 -2.419782 33.621258 -2.717817 0.000000 0.000000 0.000000 
0.973199 36.354443 12.207940 179.758435 5.075161 -179.435613 -0.738648 -5.087740 13.523639 -7.245113 -2.817697 -15.796129 13.652423 2.123434 18.252931 -1.974962 -1.824757 4.800592 0.000000 0.000000 0.000000 4.632607 -3.662178 11.659836 -4.041074 7.197378 -16.874165 -5.481191 1.523994 22.480581 9.349040 2.008523 4.721959 0.000000 0.000000 0.000000 2.623184 -1.224806 -0.740006 -1.243254 2.412633 -6.563794 0.547963 -2.698043 9.535567 0.047937 0.024916 0.071481 0.337202 -0.907324 11.201136 5.514883 -1.818667 13.471489 0.000000 0.000000 0.000000 1.402951 -0.069178 8.114044 -18.683819 -13.208847 4.187910 -42.427288 1.041575 10.334551 -2.977222 -40.216127 2.916430 0.000000 0.000000 0.000000 -1.981085 0.914519 7.796158 26.247343 6.751752 4.025237 40.809414 -5.169020 15.502386 -2.537758 32.469681 -2.875870 0.000000 0.000000 0.000000 
0.877778 36.385563 12.323599 179.791698 6.545790 -179.450871 -0.623719 -4.796503 13.460503 -7.787593 -2.085463 -15.814798 13.985847 2.438953 18.359994 -1.732301 -1.910401 5.212767 0.000000 0.000000 0.000000 4.793099 -3.230027 11.397807 -4.425143 7.962166 -17.064550 -5.451037 2.137744 22.445625 9.339534 2.039509 4.726749 0.000000 0.000000 0.000000 2.837273 -1.059439 -0.398192 -0.694727 2.408618 -5.836399 0.505954 -2.709581 9.720588 0.027284 0.036162 0.111109 0.361391 -1.001585 11.396843 6.032588 -2.653013 12.629222 0.000000 0.000000 0.000000 1.409974 -0.097494 8.388229 -18.390006 -13.244437 4.269469 -42.781491 2.884799 11.437166 -2.988365 -37.118895 3.335439 0.000000 0.000000 0.000000 -2.020613 0.871403 7.918061 25.926869 6.415225 3.886048 41.246853 -5.521088 14.392908 -2.722657 31.747378 -3.088520 0.000000 0.000000 0.000000 
0.750955 36.424114 12.497928 179.785605 8.144674 -179.446568 -0.593588 -4.511069 13.350846 -8.368857 -1.316212 -15.857575 14.152327 2.683164 18.420487 -1.457331 -1.888749 5.608653 0.000000 0.000000 0.000000 4.998109 -2.802074 11.175219 -5.027779 8.943880 -17.373368 -5.546009 3.144981 22.332043 9.293791 2.001710 4.744417 0.000000 0.000000 0.000000 3.044298 -0.845910 0.000776 -0.029042 2.300692 -4.887341 0.461514 -2.769714 10.021816 0.026257 0.013879 0.047531 0.347947 -1.161636 11.640667 6.313319 -3.163075 11.515979 0.000000 0.000000 0.000000 1.393159 -0.231752 8.591538 -17.979438 -13.021946 4.483544 -43.100041 5.100022 12.462396 -2.909900 -35.157094 3.662652 0.000000 0.000000 0.000000 -2.071049 0.753150 8.164426 25.594819 6.084764 3.594420 41.659878 -5.818208 13.145865 -2.869591 31.310516 -3.374530 0.000000 0.000000 0.000000 
